PathFileType	4	(X/Y/Z)	 s06c0203.trc
DataRate	CameraRate	NumFrames	NumMarkers	Units	OrigDataRate	OrigDataStartFrame	OrigNumFrames
200	200	7	48	mm	200	751	2000
Frame#	Time	racr			lacr			c7			jug			rlel			rdr			llel			ldr			s2			lic			ric			lasi			rasi			rpsi			lpsi			rgt			lgt			rth1			rth2			rth3			rth4			rlfc			rmfc			rsh1			rsh2			rsh3			rsh4			rlmal			rcal			rtoe			rmt5			lth1			lth2			lth4			lth3			llfc			lmfc			llmal			lcal			lmt5			lsh1			lsh2			lsh3			lsh4			ltoe			SBIKE			LBIKE			RBIKE			
		X1	Y1	Z1	X2	Y2	Z2	X3	Y3	Z3	X4	Y4	Z4	X5	Y5	Z5	X6	Y6	Z6	X7	Y7	Z7	X8	Y8	Z8	X9	Y9	Z9	X10	Y10	Z10	X11	Y11	Z11	X12	Y12	Z12	X13	Y13	Z13	X14	Y14	Z14	X15	Y15	Z15	X16	Y16	Z16	X17	Y17	Z17	X18	Y18	Z18	X19	Y19	Z19	X20	Y20	Z20	X21	Y21	Z21	X22	Y22	Z22	X23	Y23	Z23	X24	Y24	Z24	X25	Y25	Z25	X26	Y26	Z26	X27	Y27	Z27	X28	Y28	Z28	X29	Y29	Z29	X30	Y30	Z30	X31	Y31	Z31	X32	Y32	Z32	X33	Y33	Z33	X34	Y34	Z34	X35	Y35	Z35	X36	Y36	Z36	X37	Y37	Z37	X38	Y38	Z38	X39	Y39	Z39	X40	Y40	Z40	X41	Y41	Z41	X42	Y42	Z42	X43	Y43	Z43	X44	Y44	Z44	X45	Y45	Z45	X46	Y46	Z46	X47	Y47	Z47	X48	Y48	Z48	
751	3.7550	554.276162	1256.506921	-59.611015	567.503959	1233.222685	-377.780199	555.292295	1337.463714	-225.347370	539.020847	1169.718977	-215.599741	480.263448	1017.554774	58.003168	665.162474	927.456711	-42.788523	473.712685	1007.495450	-502.404787	654.304042	925.817836	-403.373843	13.599622	1141.821820	-223.322902	169.921185	1110.167910	-384.465838	157.611117	1111.385718	-52.808651	187.423359	1064.242000	-341.045265	190.112698	1072.785590	-90.679994	43.865356	1179.030438	-185.315633	44.762420	1177.649709	-245.487222	124.485927	1021.398338	-24.509118	154.089356	1063.637907	-407.324515	193.687967	900.831744	-6.560713	248.949493	828.672887	-11.378707	260.518549	742.694003	-23.928678	280.909202	844.713762	-25.468142	284.488061	638.578005	-37.132052	277.173027	615.019022	-148.428779	257.671465	519.622857	-14.340235	263.740596	434.037699	-32.731321	227.332461	355.063924	-39.384105	287.149385	434.416259	-66.469460	208.131320	276.228394	-47.203497	143.468814	270.557473	-96.016757	392.745667	150.062006	-94.053290	294.336823	167.039358	-24.881429	226.882476	986.847754	-418.442995	312.048645	967.822601	-413.071633	327.948026	998.087455	-398.036200	378.161801	907.427207	-413.780219	441.701090	816.708896	-385.807122	439.032239	805.302893	-265.265634	135.114602	610.115611	-366.713757	59.349670	634.681061	-318.771186	177.730522	479.872177	-394.127071	364.747665	743.317401	-401.542434	305.794587	684.065407	-377.241041	221.271639	655.494522	-376.349021	321.226028	668.874100	-345.036830	248.128670	426.797717	-338.025046	-204.489563	867.073149	-201.789341	-52.189704	84.477884	-410.409327	-50.965426	80.504937	-13.097889	
752	3.7600	555.178462	1256.463446	-61.274465	567.100664	1232.515351	-379.050566	555.630380	1336.666718	-226.868822	539.139508	1168.765657	-216.798755	481.737710	1018.028551	58.116615	665.867156	927.075250	-42.513933	472.757126	1006.554283	-502.102676	653.601482	925.773421	-402.857018	14.400589	1141.701702	-218.700166	168.979328	1110.395081	-384.179535	158.765688	1111.348733	-52.014127	185.883196	1063.645536	-341.283399	191.172380	1072.707793	-89.941860	44.710305	1178.943479	-184.274411	44.696835	1178.146095	-243.903943	124.935990	1020.876858	-23.893321	153.027026	1066.527159	-406.013077	192.904673	899.354590	-6.657594	247.258266	826.533815	-11.734902	257.614805	740.420447	-24.623581	279.380234	842.232211	-26.018561	280.521363	636.449196	-37.962343	272.338741	612.842986	-149.410540	253.434182	517.832908	-14.788389	259.084922	432.158567	-33.135281	222.400848	353.350799	-39.449734	282.386689	432.421529	-67.003610	202.846256	274.528859	-47.073660	137.942283	270.643745	-95.726027	384.620431	144.076818	-93.941002	286.623721	163.291921	-24.772709	226.368822	991.041356	-417.676865	311.811420	973.444276	-412.365911	327.274733	1003.813346	-396.878319	378.895137	914.082647	-413.270168	444.935849	823.994804	-384.987514	442.229184	812.089046	-264.499713	140.353722	613.541335	-366.755059	63.818843	636.434008	-318.840486	185.672556	484.414977	-394.182568	368.998098	750.089215	-401.279333	310.507550	689.829638	-377.064530	226.296149	660.350820	-376.442374	326.039516	674.724968	-344.882735	257.183384	432.868611	-337.958403	-204.514591	867.086160	-201.690337	-52.184803	84.475101	-410.386110	-50.919863	80.426410	-13.141991	
753	3.7650	556.536053	1256.193236	-62.209821	566.768714	1231.601910	-380.244834	555.982875	1335.794249	-228.521500	539.328943	1167.865682	-218.042168	483.231622	1018.331239	57.833374	666.373658	927.000830	-42.428709	471.750063	1005.361804	-501.820830	653.075418	925.738000	-402.790566	14.374413	1142.296041	-217.032190	168.034702	1110.527583	-383.938707	160.469412	1111.173430	-51.377006	184.250419	1062.936039	-341.581550	192.289782	1072.303677	-89.583069	44.938910	1179.194713	-182.848057	44.583418	1178.535532	-242.482972	125.345951	1020.320032	-23.305041	152.031804	1069.345485	-404.731126	192.188709	898.098085	-6.600102	245.999856	824.735540	-12.137795	255.049203	738.439720	-25.381888	278.028348	839.992829	-26.700324	277.091688	634.464966	-38.873395	267.982847	610.939429	-150.477484	249.506036	516.278694	-15.459557	254.626420	430.622043	-33.654943	217.521098	351.958353	-39.609833	277.853117	430.641901	-67.576115	197.351554	273.220910	-47.125351	132.529889	270.656915	-95.695842	376.295987	138.603858	-93.769669	278.704961	160.014473	-24.669321	225.728876	995.255053	-417.411776	311.347065	978.741946	-411.639126	326.307924	1009.196126	-395.601877	379.545211	920.190186	-412.508563	447.726660	830.822576	-384.251641	445.104906	818.728901	-263.612976	145.316861	616.510591	-366.803585	68.210394	637.518534	-319.012789	193.774922	488.556222	-394.195849	373.017744	755.786863	-399.792173	315.070437	695.294840	-376.688974	231.146978	664.882193	-376.399985	330.686863	679.991766	-344.719260	266.648062	438.970723	-337.854095	-204.530910	867.118421	-201.627587	-52.197740	84.538862	-410.356511	-50.995814	80.513803	-13.100420	
754	3.7700	557.480052	1255.861239	-63.874822	566.444271	1230.342585	-381.418160	556.374425	1334.732262	-230.039256	539.338152	1166.926514	-219.287001	484.181506	1018.694418	57.819380	666.735015	927.066785	-42.453752	470.734031	1003.921603	-501.597544	652.852022	925.749271	-403.039119	14.116370	1142.551224	-215.889094	167.037346	1110.620053	-383.957572	161.356570	1110.980951	-50.833327	182.603145	1062.241069	-342.123088	192.846054	1072.048836	-89.265977	45.176724	1179.486509	-181.600505	44.376857	1179.065710	-241.034562	125.674251	1019.790232	-22.775506	151.104006	1072.223798	-403.543617	191.471784	896.790227	-6.776299	244.885638	823.125993	-12.348659	253.018070	736.570728	-25.717370	276.784981	838.002906	-27.370852	274.118543	632.739758	-39.826867	264.071898	609.332343	-151.634923	245.851561	514.985404	-16.147570	250.211134	429.348004	-34.279982	212.624658	350.776159	-39.807197	273.368847	428.976075	-68.191912	191.513543	272.373605	-47.117091	126.748960	270.865408	-95.780626	367.803002	133.751098	-93.674015	270.646651	157.283731	-24.671105	224.815596	998.956051	-416.479342	310.619725	983.747025	-410.730401	325.092019	1014.418534	-394.277229	379.453960	926.200204	-412.030289	450.295971	837.597962	-382.834026	448.610214	825.557642	-261.998556	150.205549	618.908258	-366.739428	72.491577	637.865971	-319.181504	201.988044	492.127173	-393.602359	376.642489	761.517109	-398.934374	319.348303	700.234479	-376.071463	235.683194	669.097414	-376.556693	335.102331	684.992599	-344.247244	275.952338	444.514465	-337.884309	-204.545913	867.137499	-201.628472	-52.218213	84.563205	-410.349404	-50.988708	80.547065	-13.077542	
755	3.7750	558.821738	1255.321050	-64.780671	566.124822	1228.832621	-382.610479	556.794048	1333.633598	-231.695808	539.529512	1165.597276	-220.388925	484.984681	1018.989927	57.897920	667.016754	927.024541	-42.446076	469.891483	1002.176443	-501.230946	652.822306	925.666353	-403.412264	16.029561	1142.369461	-214.506371	166.217936	1110.595308	-383.996904	162.122814	1110.767979	-50.328158	181.157261	1061.526963	-342.606258	193.263230	1071.754543	-88.978666	45.423631	1179.939231	-180.468607	44.128244	1179.445345	-239.861396	125.927776	1019.334267	-22.246608	150.170571	1074.581166	-402.329239	190.902911	895.619939	-6.745733	243.738874	821.593199	-12.654435	251.523354	735.275527	-25.758378	275.636505	836.365557	-28.013650	271.606850	631.283041	-40.922728	260.759919	607.921170	-152.880707	242.574907	513.854274	-17.143934	246.018607	428.256268	-35.073541	207.720068	349.983965	-40.107590	268.378579	427.545331	-68.902495	185.446525	271.559406	-47.207294	120.844554	271.483519	-95.911382	359.024578	129.452213	-93.526804	262.260494	154.979795	-24.642099	223.824847	1002.428022	-415.402240	309.775822	988.267956	-409.764809	324.044932	1018.958978	-392.806620	379.265926	931.645582	-411.453651	452.117534	843.552757	-382.075664	449.995334	831.004912	-261.531241	155.206207	620.486359	-366.618527	76.664359	637.430196	-319.173113	210.107219	495.484979	-393.805607	379.934312	766.732791	-397.947248	323.554303	704.453587	-375.601220	240.153507	672.445519	-376.275437	339.229376	689.588687	-343.549130	285.308487	449.682678	-337.975022	-204.579706	867.127803	-201.617410	-52.214212	84.567932	-410.342406	-50.978846	80.542331	-13.083509	
756	3.7800	559.773140	1254.756808	-66.415320	565.860668	1227.129401	-383.697659	557.200719	1332.356606	-233.317991	539.910565	1164.307978	-221.081898	485.734179	1019.218362	58.082818	667.203113	926.817923	-42.445769	468.877848	1000.261827	-501.133293	652.794875	925.513121	-403.614665	15.069571	1143.313331	-213.439053	165.329502	1110.402271	-384.203810	162.840601	1110.496815	-49.809004	179.495641	1060.615398	-343.264792	193.706655	1071.419451	-88.631061	45.560882	1180.092105	-179.467630	43.784898	1179.987797	-238.723294	126.101794	1018.802205	-21.767413	149.471897	1076.993826	-401.322380	190.417249	894.505326	-6.778698	243.032385	820.263185	-12.821414	250.197056	733.801311	-26.360022	274.772852	834.818836	-28.723642	269.391063	630.038145	-42.091039	257.840635	606.787226	-154.213861	239.556063	513.038549	-18.028207	241.952003	427.404125	-35.962806	202.810792	349.584588	-40.473253	264.077932	426.352298	-69.907339	179.185909	271.394745	-47.399062	114.631510	272.307118	-96.031842	349.988081	125.764187	-93.380157	253.671445	153.323440	-24.636562	222.631340	1005.585221	-414.013319	308.866493	992.431841	-408.742991	322.749635	1023.060655	-391.323603	378.967471	936.716292	-411.246185	453.727895	849.788017	-380.520910	451.492738	836.392005	-260.217772	159.958862	621.365810	-366.421350	80.629220	636.078156	-319.134616	218.333648	498.267095	-394.029930	382.837490	771.443816	-396.767898	327.302303	708.239863	-374.953603	244.386573	675.060369	-375.977435	343.150691	693.464778	-342.956397	294.523150	454.575896	-338.285205	-204.631617	867.103956	-201.627907	-52.208204	84.558136	-410.361523	-50.977246	80.560133	-13.069653	
757	3.7850	561.129397	1254.023508	-67.346218	565.516297	1225.240301	-384.913306	557.641450	1331.019289	-234.875875	540.416706	1163.045217	-221.485750	486.307717	1019.425584	58.322350	667.251011	926.494336	-42.371897	467.847889	998.165908	-501.100504	652.549405	925.310632	-403.554677	14.641214	1143.771596	-212.313490	164.436980	1110.182328	-384.472870	163.409548	1110.195239	-49.439451	177.977771	1059.813422	-343.894599	194.013076	1070.984843	-88.351477	45.570141	1179.634641	-178.498343	43.465710	1180.395794	-237.855958	126.163006	1018.336441	-21.259493	148.771727	1078.976292	-400.431499	190.048826	893.414354	-6.729942	241.421129	819.400151	-13.257652	249.457257	732.637956	-26.927707	274.035905	833.535475	-29.482120	268.022227	628.802899	-43.281502	255.310112	605.857176	-155.558813	236.893337	512.381883	-18.984146	237.963918	426.773265	-37.012584	197.795518	349.372841	-41.050614	259.890449	425.341271	-71.085051	172.585391	271.793522	-47.467622	108.180770	273.427478	-96.291621	340.876913	122.826239	-93.153561	244.998888	151.991665	-24.669502	221.446868	1008.356175	-412.459346	307.869933	996.098023	-407.679382	321.468313	1026.699255	-389.901276	378.508876	940.939940	-410.216182	454.954093	855.027263	-379.100929	452.619932	841.408367	-258.672113	164.416850	621.444047	-366.205782	84.381142	633.808716	-319.163466	226.396233	500.560883	-394.357799	385.382025	775.517026	-395.624329	330.788679	711.343631	-374.208880	248.342559	676.923450	-375.584589	346.883625	696.690838	-342.247014	303.961711	459.200324	-338.339180	-204.675529	867.087422	-201.738789	-52.211492	84.517785	-410.372968	-50.985473	80.533904	-13.121450	
